<svg width="618" height="618" viewBox="0 0 618 618" fill="none" xmlns="http://www.w3.org/2000/svg">
<path d="M45.3655 567.347C45.3655 567.347 -10.9287 528.483 24.5164 426.971C54.0724 342.323 178.375 327.588 220.447 289.91C262.521 252.232 246.489 149.539 326.905 89.0757C406.599 29.1551 573.937 31.2552 605.196 153.467V567.347H45.3655Z" fill="#E3C2F2"/>
<path d="M371.945 484.271H311.92V442.99H371.945V484.271Z" fill="#CFADDF"/>
<path d="M371.945 461.739L311.92 455.797V442.99H371.945V461.739Z" fill="#CA5CFF"/>
<path d="M402.853 483.623H281.015C277.167 483.623 274.049 486.743 274.049 490.591V497.558H409.82V490.591C409.82 486.743 406.701 483.623 402.853 483.623Z" fill="#CA5CFF"/>
<path d="M529.743 189.098H154.121C150.077 189.098 146.798 192.377 146.798 196.421V444.475C146.798 448.521 150.077 451.8 154.121 451.8H529.743C533.788 451.8 537.066 448.521 537.066 444.475V196.421C537.066 192.377 533.788 189.098 529.743 189.098Z" fill="#B784CF"/>
<path d="M528.046 422.069H155.819C154.209 422.069 152.901 420.762 152.901 419.151V199.34C152.901 197.727 154.209 196.422 155.819 196.422H528.046C529.658 196.422 530.964 197.727 530.964 199.34V419.151C530.964 420.762 529.658 422.069 528.046 422.069Z" fill="#EDDFF3"/>
<path d="M349.184 435.977C349.184 439.98 345.939 443.224 341.936 443.224C337.933 443.224 334.687 439.98 334.687 435.977C334.687 431.973 337.933 428.729 341.936 428.729C345.939 428.729 349.184 431.973 349.184 435.977Z" fill="#8E44AD"/>
<g opacity="0.300003">
<g opacity="0.300003">
<path opacity="0.300003" d="M514.046 412.988H266.141C262.868 412.988 260.214 410.334 260.214 407.061V214.951C260.214 211.678 262.868 209.025 266.141 209.025H514.046C517.319 209.025 519.973 211.678 519.973 214.951V407.061C519.973 410.334 517.319 412.988 514.046 412.988Z" fill="#D68EF5"/>
</g>
<g opacity="0.300003">
<path opacity="0.300003" d="M510.888 275.873H269.303C267.558 275.873 266.143 274.458 266.143 272.713V218.234C266.143 216.487 267.558 215.072 269.303 215.072H510.888C512.633 215.072 514.049 216.487 514.049 218.234V272.713C514.049 274.458 512.633 275.873 510.888 275.873Z" fill="#D68EF5"/>
</g>
<g opacity="0.300003">
<g opacity="0.300003">
<path d="M281.488 284.196V388.114V284.196Z" fill="#D68EF5"/>
<path d="M281.488 284.196V388.114" stroke="#6C9FBC" stroke-width="0.1129" stroke-miterlimit="10" stroke-linecap="round"/>
</g>
</g>
<g opacity="0.300003">
<g opacity="0.300003">
<path d="M325.13 284.196V388.114V284.196Z" fill="#D68EF5"/>
<path d="M325.13 284.196V388.114" stroke="#6C9FBC" stroke-width="0.1129" stroke-miterlimit="10" stroke-linecap="round"/>
</g>
</g>
<g opacity="0.300003">
<g opacity="0.300003">
<path d="M368.772 284.196V388.114V284.196Z" fill="#D68EF5"/>
<path d="M368.772 284.196V388.114" stroke="#6C9FBC" stroke-width="0.1129" stroke-miterlimit="10" stroke-linecap="round"/>
</g>
</g>
<g opacity="0.300003">
<g opacity="0.300003">
<path d="M412.421 284.196V388.114V284.196Z" fill="#D68EF5"/>
<path d="M412.421 284.196V388.114" stroke="#6C9FBC" stroke-width="0.1129" stroke-miterlimit="10" stroke-linecap="round"/>
</g>
</g>
<g opacity="0.300003">
<g opacity="0.300003">
<path d="M456.062 284.196V388.114V284.196Z" fill="#D68EF5"/>
<path d="M456.062 284.196V388.114" stroke="#6C9FBC" stroke-width="0.1129" stroke-miterlimit="10" stroke-linecap="round"/>
</g>
</g>
<g opacity="0.300003">
<g opacity="0.300003">
<path d="M499.711 284.196V388.114V284.196Z" fill="#D68EF5"/>
<path d="M499.711 284.196V388.114" stroke="#6C9FBC" stroke-width="0.1129" stroke-miterlimit="10" stroke-linecap="round"/>
</g>
</g>
<g opacity="0.300003">
<g opacity="0.300003">
<path d="M281.488 332.841C281.488 332.841 300.536 376.922 325.133 376.922C367.418 376.922 385.071 294.425 412.422 294.425C437.063 294.425 436.511 341.408 455.781 346.106C473.891 350.522 487.225 317.917 499.713 317.956" fill="#D68EF5"/>
<path d="M281.488 332.841C281.488 332.841 300.536 376.922 325.133 376.922C367.418 376.922 385.071 294.425 412.422 294.425C437.063 294.425 436.511 341.408 455.781 346.106C473.891 350.522 487.225 317.917 499.713 317.956" stroke="#6C9FBC" stroke-width="0.106" stroke-miterlimit="10" stroke-linecap="round"/>
</g>
</g>
<g opacity="0.300003">
<g opacity="0.300003">
<path d="M273.853 396.82H510.024H273.853Z" fill="#D68EF5"/>
<path d="M273.853 396.82H510.024" stroke="#6C9FBC" stroke-width="0.1129" stroke-miterlimit="10" stroke-linecap="round"/>
</g>
</g>
<g opacity="0.300003">
<path opacity="0.300003" d="M287.502 405.803H275.468C274.476 405.803 273.673 404.999 273.673 404.006C273.673 403.014 274.476 402.209 275.468 402.209H287.502C288.494 402.209 289.299 403.014 289.299 404.006C289.299 404.999 288.494 405.803 287.502 405.803Z" fill="#D68EF5"/>
</g>
<g opacity="0.300003">
<path opacity="0.300003" d="M331.145 405.803H319.11C318.119 405.803 317.315 404.999 317.315 404.006C317.315 403.014 318.119 402.209 319.11 402.209H331.145C332.136 402.209 332.941 403.014 332.941 404.006C332.941 404.999 332.136 405.803 331.145 405.803Z" fill="#D68EF5"/>
</g>
<g opacity="0.300003">
<path opacity="0.300003" d="M374.793 405.803H362.759C361.767 405.803 360.963 404.999 360.963 404.006C360.963 403.014 361.767 402.209 362.759 402.209H374.793C375.784 402.209 376.59 403.014 376.59 404.006C376.59 404.999 375.784 405.803 374.793 405.803Z" fill="#D68EF5"/>
</g>
<g opacity="0.300003">
<path opacity="0.300003" d="M418.435 405.803H406.4C405.409 405.803 404.605 404.999 404.605 404.006C404.605 403.014 405.409 402.209 406.4 402.209H418.435C419.426 402.209 420.232 403.014 420.232 404.006C420.232 404.999 419.426 405.803 418.435 405.803Z" fill="#D68EF5"/>
</g>
<g opacity="0.300003">
<path opacity="0.300003" d="M462.083 405.803H450.049C449.057 405.803 448.254 404.999 448.254 404.006C448.254 403.014 449.057 402.209 450.049 402.209H462.083C463.075 402.209 463.88 403.014 463.88 404.006C463.88 404.999 463.075 405.803 462.083 405.803Z" fill="#D68EF5"/>
</g>
<g opacity="0.300003">
<path opacity="0.300003" d="M505.726 405.803H493.691C492.7 405.803 491.896 404.999 491.896 404.006C491.896 403.014 492.7 402.209 493.691 402.209H505.726C506.717 402.209 507.523 403.014 507.523 404.006C507.523 404.999 506.717 405.803 505.726 405.803Z" fill="#D68EF5"/>
</g>
<g opacity="0.300003">
<path opacity="0.300003" d="M415.454 294.425C415.454 296.099 414.096 297.458 412.42 297.458C410.745 297.458 409.388 296.099 409.388 294.425C409.388 292.75 410.745 291.391 412.42 291.391C414.096 291.391 415.454 292.75 415.454 294.425Z" fill="#D68EF5"/>
</g>
<g opacity="0.300003">
<path opacity="0.300003" d="M283.538 332.584C283.538 333.719 282.619 334.639 281.483 334.639C280.348 334.639 279.429 333.719 279.429 332.584C279.429 331.449 280.348 330.529 281.483 330.529C282.619 330.529 283.538 331.449 283.538 332.584Z" fill="#D68EF5"/>
</g>
<g opacity="0.300003">
<path opacity="0.300003" d="M501.762 317.973C501.762 319.108 500.843 320.028 499.708 320.028C498.572 320.028 497.653 319.108 497.653 317.973C497.653 316.838 498.572 315.918 499.708 315.918C500.843 315.918 501.762 316.838 501.762 317.973Z" fill="#D68EF5"/>
</g>
</g>
<path d="M510.734 409.671H262.828C259.555 409.671 256.901 407.017 256.901 403.744V211.634C256.901 208.361 259.555 205.707 262.828 205.707H510.734C514.007 205.707 516.66 208.361 516.66 211.634V403.744C516.66 407.017 514.007 409.671 510.734 409.671Z" fill="white"/>
<path d="M507.569 272.556H265.984C264.239 272.556 262.823 271.141 262.823 269.395V214.917C262.823 213.17 264.239 211.755 265.984 211.755H507.569C509.314 211.755 510.729 213.17 510.729 214.917V269.395C510.729 271.141 509.314 272.556 507.569 272.556Z" fill="#EDDFF3"/>
<path d="M278.169 280.879V384.797" stroke="#B784CF" stroke-width="0.1129" stroke-miterlimit="10" stroke-linecap="round"/>
<path d="M321.817 280.879V384.797" stroke="#B784CF" stroke-width="0.1129" stroke-miterlimit="10" stroke-linecap="round"/>
<path d="M365.459 280.879V384.797" stroke="#B784CF" stroke-width="0.1129" stroke-miterlimit="10" stroke-linecap="round"/>
<path d="M409.108 280.879V384.797" stroke="#B784CF" stroke-width="0.1129" stroke-miterlimit="10" stroke-linecap="round"/>
<path d="M452.75 280.879V384.797" stroke="#B784CF" stroke-width="0.1129" stroke-miterlimit="10" stroke-linecap="round"/>
<path d="M496.398 280.879V384.797" stroke="#B784CF" stroke-width="0.1129" stroke-miterlimit="10" stroke-linecap="round"/>
<path d="M278.169 329.523C278.169 329.523 297.216 373.605 321.814 373.605C364.099 373.605 381.752 291.107 409.103 291.107C433.744 291.107 433.192 338.091 452.462 342.788C470.571 347.204 483.905 314.599 496.393 314.638" stroke="#B784CF" stroke-width="0.106" stroke-miterlimit="10" stroke-linecap="round"/>
<path d="M270.54 393.504H506.712" stroke="#D6E2EA" stroke-width="0.1129" stroke-miterlimit="10" stroke-linecap="round"/>
<path d="M284.189 402.485H272.155C271.164 402.485 270.36 401.681 270.36 400.688C270.36 399.697 271.164 398.892 272.155 398.892H284.189C285.181 398.892 285.986 399.697 285.986 400.688C285.986 401.681 285.181 402.485 284.189 402.485Z" fill="#D6E2EA"/>
<path d="M327.831 402.485H315.797C314.805 402.485 314.002 401.681 314.002 400.688C314.002 399.697 314.805 398.892 315.797 398.892H327.831C328.823 398.892 329.628 399.697 329.628 400.688C329.628 401.681 328.823 402.485 327.831 402.485Z" fill="#D6E2EA"/>
<path d="M371.48 402.485H359.445C358.454 402.485 357.65 401.681 357.65 400.688C357.65 399.697 358.454 398.892 359.445 398.892H371.48C372.471 398.892 373.277 399.697 373.277 400.688C373.277 401.681 372.471 402.485 371.48 402.485Z" fill="#D6E2EA"/>
<path d="M415.122 402.485H403.088C402.096 402.485 401.292 401.681 401.292 400.688C401.292 399.697 402.096 398.892 403.088 398.892H415.122C416.114 398.892 416.919 399.697 416.919 400.688C416.919 401.681 416.114 402.485 415.122 402.485Z" fill="#D6E2EA"/>
<path d="M458.771 402.485H446.736C445.745 402.485 444.941 401.681 444.941 400.688C444.941 399.697 445.745 398.892 446.736 398.892H458.771C459.762 398.892 460.568 399.697 460.568 400.688C460.568 401.681 459.762 402.485 458.771 402.485Z" fill="#D6E2EA"/>
<path d="M502.413 402.485H490.379C489.387 402.485 488.583 401.681 488.583 400.688C488.583 399.697 489.387 398.892 490.379 398.892H502.413C503.405 398.892 504.21 399.697 504.21 400.688C504.21 401.681 503.405 402.485 502.413 402.485Z" fill="#D6E2EA"/>
<path d="M412.14 291.107C412.14 292.782 410.783 294.141 409.107 294.141C407.432 294.141 406.075 292.782 406.075 291.107C406.075 289.432 407.432 288.074 409.107 288.074C410.783 288.074 412.14 289.432 412.14 291.107Z" fill="#B784CF"/>
<path d="M280.225 329.268C280.225 330.403 279.306 331.323 278.171 331.323C277.035 331.323 276.116 330.403 276.116 329.268C276.116 328.133 277.035 327.213 278.171 327.213C279.306 327.213 280.225 328.133 280.225 329.268Z" fill="#B784CF"/>
<path d="M498.45 314.656C498.45 315.791 497.53 316.711 496.395 316.711C495.26 316.711 494.34 315.791 494.34 314.656C494.34 313.521 495.26 312.601 496.395 312.601C497.53 312.601 498.45 313.521 498.45 314.656Z" fill="#B784CF"/>
<g opacity="0.300003">
<g opacity="0.300003">
<path opacity="0.300003" d="M247.494 412.988H170.475C167.564 412.988 165.205 410.628 165.205 407.717V214.296C165.205 211.386 167.564 209.025 170.475 209.025H247.494C250.406 209.025 252.766 211.386 252.766 214.296V407.717C252.766 410.628 250.406 412.988 247.494 412.988Z" fill="#D68EF5"/>
</g>
</g>
<path d="M244.175 409.671H167.155C164.245 409.671 161.885 407.311 161.885 404.399V210.979C161.885 208.069 164.245 205.707 167.155 205.707H244.175C247.087 205.707 249.446 208.069 249.446 210.979V404.399C249.446 407.311 247.087 409.671 244.175 409.671Z" fill="white"/>
<path d="M241.843 403.868H169.849C168.837 403.868 168.018 403.048 168.018 402.036V213.587C168.018 212.575 168.837 211.756 169.849 211.756H241.843C242.855 211.756 243.674 212.575 243.674 213.587V402.036C243.674 403.048 242.855 403.868 241.843 403.868Z" fill="#EDDFF3"/>
<path d="M471.091 189.127H408.965C409.743 187.193 410.832 184.929 412.254 183.094C414.997 179.476 425.922 174.633 429.161 173.244C429.342 173.162 429.508 173.096 429.624 173.046C429.921 172.93 430.071 172.865 430.071 172.865L441.904 168.716V168.7H441.921C441.921 168.7 459.009 173.377 463.455 175.607C465.621 176.683 467.851 181.013 469.571 185.16C469.702 185.492 469.851 185.839 469.999 186.202C470.396 187.227 470.761 188.219 471.091 189.127Z" fill="white"/>
<path d="M441.905 168.7V168.717C441.905 168.717 439.079 173.774 430.071 172.864C430.071 172.864 430.088 172.683 430.055 172.336C430.038 171.525 429.906 169.84 429.212 167.774C429.179 167.626 429.114 167.477 429.064 167.311C428.848 166.7 428.568 166.056 428.236 165.394C427.675 164.237 426.915 163.031 425.924 161.841L426.221 160.998L431.261 147.297L431.839 145.744C431.839 145.744 432.666 147.81 433.906 150.817C434.616 152.52 435.442 154.52 436.335 156.618C438.169 160.866 440.235 165.477 441.905 168.7Z" fill="#FE9393"/>
<path d="M433.591 158.617V158.635C433.443 161.526 432.781 167.526 430.054 172.334C430.039 171.524 429.906 169.839 429.211 167.773C428.683 168.369 428.154 168.832 427.626 169.227C427.377 168.764 427.113 168.286 426.799 167.806L427.211 167.013L428.237 165.393L433.641 156.882C433.641 156.882 433.657 157.526 433.591 158.617Z" fill="#E15F60"/>
<path d="M408.346 152.151C408.346 152.151 409.513 157.854 414.179 158.633L411.263 150.642L408.346 152.151Z" fill="#002952"/>
<path d="M433.974 155.659C433.909 156.65 433.776 157.641 433.594 158.617V158.633C433.28 160.237 432.784 161.823 432.107 163.327C431.23 165.261 430.238 166.699 429.214 167.773C428.686 168.369 428.157 168.831 427.627 169.227C425.166 171.046 423.033 170.98 423.033 170.98C418.373 168.864 414.853 162.947 412.67 158.154C411.779 156.22 411.117 154.469 410.672 153.229C410.274 152.106 410.076 151.412 410.076 151.412C410.06 151.362 410.043 151.329 410.026 151.279C407.547 144.883 415.1 139.957 422.373 139.942C422.801 139.942 423.216 139.957 423.644 140.007C425.76 140.156 427.81 140.767 429.511 141.909C432.421 143.859 433.561 147.412 433.909 150.816C433.924 150.999 433.941 151.18 433.957 151.362C434.09 152.899 434.057 154.386 433.974 155.659Z" fill="#FE9393"/>
<path d="M423.814 138.454C423.814 138.454 423.383 156.601 402.296 152.972C402.296 152.972 405.325 134.587 417.247 133.701C419.492 133.535 422.49 134.651 423.814 138.454Z" fill="#002952"/>
<path d="M422.489 140.96C422.489 140.96 424.592 147.873 428.998 151.071C428.998 151.071 428.479 148.047 430.381 147.182C432.282 146.317 434.875 153.706 436.332 156.613C436.332 156.613 438.59 151.243 434.789 141.737C430.986 132.231 423.036 132.258 422.129 137.948L422.489 140.96Z" fill="#002952"/>
<path d="M430.868 148.749C430.868 148.749 429.961 149.495 430.868 151.439C431.775 153.384 433.168 153.028 432.812 151.925C432.457 150.823 431.217 150.792 431.27 151.309C431.27 151.309 430.382 150.402 430.868 148.749Z" fill="#E15F60"/>
<path d="M451.381 245.079L447.928 248.797C447.928 248.797 446.941 249.404 444.436 249.936C441.933 250.467 440.927 252.686 440.699 253.143C440.471 253.598 441.009 253.954 441.989 253.471C442.644 253.149 442.994 252.137 444.399 252.516C445.026 252.686 444.17 254.25 443.45 254.894C442.729 255.54 439.908 257.526 439.226 258.056C438.543 258.588 438.655 259.423 441.009 258.359C443.201 257.37 443.759 256.941 444.5 256.517C444.513 256.519 445.54 256.591 445.992 256.517C446.119 256.497 446.255 256.417 446.386 256.316C446.655 256.331 447.404 256.369 447.776 256.309C447.839 256.298 447.903 256.273 447.969 256.239C448.411 256.269 448.838 256.302 449.209 256.32C450.651 256.397 451.562 254.044 451.98 253.019C452.397 251.995 455.631 248.417 455.631 248.417L451.381 245.079Z" fill="#FE9393"/>
<path d="M451.038 188.955C455.135 198.367 467.914 217.753 467.914 217.753C467.914 217.753 465.268 221.327 462.877 225.08C459.37 230.588 455.157 238.276 449.967 245.845C449.967 245.845 450.528 247.274 451.948 248.721C452.974 249.765 454.635 250.478 454.635 250.478C454.635 250.478 477.001 231.998 482.194 219.976C482.524 219.211 482.555 218.355 482.261 217.576C480.336 212.467 472.372 191.419 468.685 183.122L451.038 188.955Z" fill="white"/>
<path d="M294.923 248.492L186.011 258.308C184.119 258.478 182.446 257.082 182.274 255.188L179.469 224.054C179.298 222.161 180.695 220.488 182.588 220.317L291.5 210.502C293.393 210.331 295.066 211.728 295.236 213.621L298.043 244.755C298.213 246.649 296.817 248.322 294.923 248.492Z" fill="white"/>
<path d="M186.652 229.136L289.693 219.851" stroke="#D6E2EA" stroke-width="0.2002" stroke-miterlimit="10" stroke-linecap="round"/>
<path d="M186.652 229.136L236.648 224.631" stroke="#EB5D62" stroke-width="0.2192" stroke-miterlimit="10" stroke-linecap="round"/>
<path d="M187.822 239.606L290.862 230.32" stroke="#D6E2EA" stroke-width="0.2002" stroke-miterlimit="10" stroke-linecap="round"/>
<path d="M187.822 239.606L225.906 236.173" stroke="#EB5D62" stroke-width="0.2192" stroke-miterlimit="10" stroke-linecap="round"/>
<path d="M188.538 249.781L291.578 240.495" stroke="#D6E2EA" stroke-width="0.2002" stroke-miterlimit="10" stroke-linecap="round"/>
<path d="M188.538 249.781L278.726 241.652" stroke="#EB5D62" stroke-width="0.2192" stroke-miterlimit="10" stroke-linecap="round"/>
<path d="M264.11 260.259C264.11 260.259 264.216 258.627 264.332 256.951C264.439 255.404 263.735 254.386 263.669 254.014C263.499 253.019 263.668 251.31 263.668 251.31L265.844 251.113C265.844 251.113 266.775 249.786 267.68 248.067C267.926 247.603 268.084 247.09 268.084 246.564C268.08 245.209 268.135 245.052 268.202 244.255C268.295 243.163 269.181 242.753 269.524 244.059C269.84 245.265 269.81 246.929 269.81 247.565C269.81 248.2 268.661 250.94 268.661 250.94C268.661 250.94 271.987 252.857 272.084 253.492C272.182 254.128 270.65 256.675 269.475 261.287" fill="#FE9393"/>
<path d="M269.344 244.481C269.344 244.481 269.006 242.953 269.702 242.769C270.272 242.617 270.615 243.821 270.787 244.481C270.957 245.141 271.276 247.246 271.398 247.954C271.52 248.664 269.882 252.774 269.882 252.774L267.999 251.11L268.928 246.315" fill="#FE9393"/>
<path d="M270.641 245.411C270.641 245.411 270.542 244.285 271.082 244.041C271.62 243.797 271.912 244.751 272.084 245.411C272.255 246.071 272.574 248.176 272.696 248.884C272.818 249.594 271.179 253.703 271.179 253.703L269.296 252.04L270.225 247.245" fill="#FE9393"/>
<path d="M272.7 245.998C272.605 246.608 272.863 247.582 272.915 248.009C272.977 248.516 272.377 249.593 272.377 249.593L271.145 253.141L271.751 254.671L273.673 250.206L274 249.292C274.178 248.76 274.209 248.194 274.081 247.65C273.806 246.482 273.257 244.685 272.7 245.998Z" fill="#FE9393"/>
<path d="M206.576 265.64C206.576 265.64 208.416 261.025 208.387 260.437C208.355 259.851 207.211 256.767 207.048 256.165C206.887 255.563 207.139 251.844 207.628 251.16C208.116 250.475 208.606 250.962 208.801 251.647C208.998 252.332 209.144 253.727 209.12 254.168C209.095 254.608 210.174 256.129 210.174 256.129L215.575 255.643L217.486 255.471C217.486 255.471 217.144 257.152 216.751 258.179C216.36 259.206 215.577 259.843 215.039 260.356C214.501 260.87 213.083 264.759 212.618 266.251" fill="#FE9393"/>
<path d="M227.172 489.407V497.283C227.172 497.283 230.01 498.164 232.651 497.283L233.678 489.407" fill="#FE9393"/>
<path d="M177.251 483.523L175.193 491.126C175.193 491.126 177.701 492.717 180.482 492.558L183.531 485.222" fill="#FE9393"/>
<path d="M206.517 264.573C206.517 264.573 210.921 264.988 213.465 266.015C213.465 266.015 210.372 285.058 207.31 292.397C204.847 298.295 209.551 314.153 209.551 314.153L200.614 320.22C200.614 320.22 196.439 298.76 195.918 293.41C195.396 288.062 206.517 264.573 206.517 264.573Z" fill="#B784CF"/>
<path d="M218.245 374.168C218.245 380.681 217.07 389.041 215.333 397.854C213.924 404.946 212.14 412.319 210.26 419.254C208.414 426.22 206.473 432.733 204.765 438.087C199.224 455.432 182.725 488.668 182.725 488.668C178.873 488.996 176.009 486.649 176.009 486.649C176.009 486.649 183.116 447.354 188.72 435.535C189.127 432.577 189.33 416.014 190.817 403.818C191.569 397.604 191.319 391.326 190.551 385.111C189.502 376.799 192.289 368.939 192.289 368.939L218.245 374.168Z" fill="#8E44AD"/>
<path d="M215.336 397.856C213.927 404.947 212.143 412.32 210.263 419.255C204.627 402.819 203.595 385.253 203.595 385.253C203.595 385.253 211.924 394.537 215.336 397.856Z" fill="#490067"/>
<path d="M234.684 370.772C234.684 370.772 238.818 419.303 239.079 438.088C239.34 456.874 233.534 493.858 233.534 493.858C233.534 493.858 232.035 495.294 226.393 493.91C226.393 493.91 220.967 453.67 223.118 438.457C223.118 438.457 212.996 415.148 207.9 399.342C206.926 396.324 205.239 390.524 204.547 387.992C200.243 372.208 211.592 362.424 211.592 362.424" fill="#8E44AD"/>
<path d="M262.734 259.621C262.734 259.621 257.254 281.277 252.297 292.757C240.067 301.013 227.906 310.313 227.906 310.313L215.378 306.979C209.116 310.661 204.55 319.11 201.811 333.395C199.071 347.681 186.131 375.808 186.131 375.808C211.981 389.506 237.767 382.235 237.767 382.235C237.767 382.235 238.059 356.197 238.092 340.857C238.113 330.984 242.297 321.615 249.551 314.918C254.99 309.898 260.421 304.147 262.863 300.13C267.952 287.27 270.496 260.991 270.496 260.991C267.234 258.642 262.734 259.621 262.734 259.621Z" fill="#B784CF"/>
<path d="M228.593 304.974C228.124 306.508 227.779 308.37 227.905 310.313C227.905 310.313 223.52 312 219.419 309.166C215.302 306.333 219.481 301.013 219.481 301.013H230.252C230.252 301.013 229.298 302.625 228.593 304.974Z" fill="#FE9393"/>
<path d="M230.251 301.014C230.251 301.014 229.296 302.626 228.592 304.975C225.006 305.131 223.316 303.738 223.316 303.738C223.316 303.738 224.303 302.298 225.194 301.014H230.251Z" fill="#E15F60"/>
<path d="M229.875 279.992C229.875 279.992 234.594 289.227 234.443 297.296C232.23 300.211 229.503 302.023 227.204 303.13C224.117 304.617 220.394 303.998 217.987 301.56C216.63 300.184 215.127 298.264 213.737 295.621C207.592 283.929 221.045 270.908 229.875 279.992Z" fill="#FE9393"/>
<path d="M225.686 269.681C233.008 271.512 233.519 277.87 231.732 280.072C228.71 283.792 227.022 283.27 225.181 283.831C219.869 285.453 221.389 297.773 221.07 304.219C220.753 310.665 226.49 337.798 215.402 342.887C212.39 344.268 208.496 342.02 202.449 345.681C196.401 349.342 182.235 346.158 185.1 332.948C187.964 319.737 201.694 314.427 205.674 301.695C206.995 297.467 203.989 294.223 203.139 291.226C201.084 283.986 203.57 279.143 205.584 276.08C209.009 270.874 218.365 267.85 225.686 269.681Z" fill="#8E44AD"/>
<path d="M221.555 290.723C221.555 290.723 220.786 288.548 218.645 289.599C216.027 290.881 218.889 296.644 221.334 295.665" fill="#FE9393"/>
<path d="M218.669 290.881C218.669 290.881 219.591 290.486 220.093 291.258C220.713 292.209 221.507 293.763 220.333 294.001C219.541 294.162 218.791 292.608 220.039 292.118C220.039 292.118 219.671 290.72 218.669 290.881Z" fill="#E15F60"/>
<path d="M225.255 499.65C225.255 499.65 225.411 497.511 227.172 496.402C227.172 496.402 227.977 495.683 230.315 496.402C231.031 496.621 232.018 497.47 232.651 497.282C232.651 497.282 234.102 499.548 235.439 502.224C236.054 503.451 236.85 505.17 237.869 506.291C239.072 507.614 240.887 507.931 240.967 508.86C241.072 510.069 241.164 510.35 237.869 510.35C237.869 510.35 233.369 509.251 232.129 507.98C230.89 506.707 225.255 499.65 225.255 499.65Z" fill="#8E44AD"/>
<path d="M232.534 510.352C231.056 510.352 229.694 509.581 228.939 508.311C227.566 506.005 225.696 502.383 225.345 501.351C224.14 497.795 228.836 497.991 229.977 499.264C230.967 500.366 232.39 503.228 233.679 505.77C234.967 508.314 235.913 509.83 237.869 510.352H232.534Z" fill="#490067"/>
<path d="M180.482 492.556C180.482 492.556 181.023 493.726 180.893 495.03C180.763 496.336 179.797 509.163 178.21 510.197C177.899 510.398 177.348 510.631 175.838 510.631C174.335 510.631 173.714 508.328 172.283 504.75C170.813 501.075 172.38 495.204 172.902 492.029C173.126 491.52 174.028 490.469 174.793 489.779C175.345 489.28 176.071 489.052 176.813 489.113C177.891 489.201 179.37 489.652 179.229 491.485C179.198 491.896 179.092 492.201 180.482 492.556Z" fill="#8E44AD"/>
<path d="M172.325 493.184C172.719 491.641 173.643 491.093 174.872 490.934C176.293 490.751 178.351 492.146 178.204 495.472C178.057 498.799 177.918 507.778 177.635 508.924C176.981 511.567 174.057 510.862 173.127 508.709C172.276 506.737 170.625 499.85 172.325 493.184Z" fill="#490067"/>
<path d="M403.639 273.855H423.098" stroke="#D6E2EA" stroke-width="0.0685" stroke-miterlimit="10" stroke-linecap="round"/>
<path d="M403.639 276.445H423.098" stroke="#D6E2EA" stroke-width="0.0685" stroke-miterlimit="10" stroke-linecap="round"/>
<path d="M403.639 279.032H414.618" stroke="#D6E2EA" stroke-width="0.0685" stroke-miterlimit="10" stroke-linecap="round"/>
<path d="M377.355 144.531H265.399C262.163 144.531 259.541 147.154 259.541 150.389V166.052C259.541 169.287 262.163 171.909 265.399 171.909H364.043L372.549 180.416V171.909H377.355C380.591 171.909 383.213 169.287 383.213 166.052V150.389C383.213 147.154 380.591 144.531 377.355 144.531Z" fill="#8E44AD"/>
<path d="M268.413 151.998H373.561" stroke="white" stroke-width="0.1001" stroke-miterlimit="10" stroke-linecap="round"/>
<path d="M268.413 158.221H373.561" stroke="white" stroke-width="0.1001" stroke-miterlimit="10" stroke-linecap="round"/>
<path d="M268.413 164.445H328.554" stroke="white" stroke-width="0.1001" stroke-miterlimit="10" stroke-linecap="round"/>
<path d="M178.867 270.395H119.484C116.249 270.395 113.627 273.017 113.627 276.252V291.915C113.627 295.15 116.249 297.772 119.484 297.772H165.555L174.06 306.279V297.772H178.867C182.102 297.772 184.726 295.15 184.726 291.915V276.252C184.726 273.017 182.102 270.395 178.867 270.395Z" fill="#D68EF5"/>
<path d="M122.499 277.861H168.017" stroke="white" stroke-width="0.1001" stroke-miterlimit="10" stroke-linecap="round"/>
<path d="M122.499 284.083H175.073" stroke="white" stroke-width="0.1001" stroke-miterlimit="10" stroke-linecap="round"/>
<path d="M122.499 290.307H141.348" stroke="white" stroke-width="0.1001" stroke-miterlimit="10" stroke-linecap="round"/>
<path d="M579.204 295.942H494.059C491.74 295.942 489.858 294.062 489.858 291.742V237.405C489.858 235.085 491.74 233.205 494.059 233.205H579.204C581.523 233.205 583.404 235.085 583.404 237.405V291.742C583.404 294.062 581.523 295.942 579.204 295.942Z" fill="#8E44AD"/>
<path d="M498.338 246.772H574.915" stroke="white" stroke-width="0.1001" stroke-miterlimit="10" stroke-linecap="round"/>
<path d="M498.338 255.095H562.48" stroke="white" stroke-width="0.1001" stroke-miterlimit="10" stroke-linecap="round"/>
<path d="M498.338 271.741H574.915" stroke="white" stroke-width="0.1001" stroke-miterlimit="10" stroke-linecap="round"/>
<path d="M498.338 280.066H566.917" stroke="white" stroke-width="0.1001" stroke-miterlimit="10" stroke-linecap="round"/>
<path d="M498.338 288.388H549.957" stroke="white" stroke-width="0.1001" stroke-miterlimit="10" stroke-linecap="round"/>
<path d="M575.067 235.969L579.603 240.505" stroke="white" stroke-width="0.1001" stroke-miterlimit="10" stroke-linecap="round"/>
<path d="M579.603 235.969L575.067 240.505" stroke="white" stroke-width="0.1001" stroke-miterlimit="10" stroke-linecap="round"/>
<path d="M567.351 240.505H571.012C571.254 240.505 571.449 240.31 571.449 240.068V236.407C571.449 236.164 571.254 235.969 571.012 235.969H567.351C567.109 235.969 566.913 236.164 566.913 236.407V240.068C566.913 240.31 567.109 240.505 567.351 240.505Z" stroke="white" stroke-width="0.1001" stroke-miterlimit="10" stroke-linecap="round"/>
<path d="M558.501 240.505H563.037" stroke="white" stroke-width="0.1001" stroke-miterlimit="10" stroke-linecap="round"/>
<path d="M498.338 263.418H540.434" stroke="white" stroke-width="0.1001" stroke-miterlimit="10" stroke-linecap="round"/>
<path d="M360.269 498.729V508.168C360.269 508.168 363.118 508.95 366.303 508.168L366.75 497.611" fill="#FE9393"/>
<path d="M366.36 506.897C366.36 506.897 365.542 507.748 362.582 507.641C362.582 507.641 360.94 506.289 358.929 507.008C358.929 507.008 355.961 509.601 353.857 510.029C351.753 510.456 349.292 510.706 348.721 511.634C348.152 512.561 348.365 513.166 348.365 513.166C348.365 513.166 348.223 513.559 350.79 513.666C353.358 513.773 361.596 513.416 363.022 513.488C364.448 513.559 366.374 513.595 367.266 513.31C368.157 513.024 368.077 508.542 366.36 506.897Z" fill="#8E44AD"/>
<path d="M412.51 496.252L415.289 505.272C415.289 505.272 418.243 505.179 421.056 503.495L418.376 493.275" fill="#FE9393"/>
<path d="M424.498 507.244C423.864 507.913 422.15 508.803 420.847 509.421C420.128 509.746 417.624 511.203 415.157 512.626C414.179 513.175 413.066 513.466 411.951 513.466H407.906C407.152 513.466 406.878 512.952 406.899 512.623C406.953 511.777 407.667 511.066 408.849 510.844C409.143 510.791 409.446 510.697 409.742 510.584C411.063 510.076 412.153 509.089 412.905 507.89C413.654 506.694 414.179 505.651 414.179 505.651C415.602 504.073 417.693 504.484 417.693 504.484C420.35 503.164 420.66 502.034 420.66 502.034C422.955 502.667 425.151 506.575 424.498 507.244Z" fill="#8E44AD"/>
<path d="M382.141 398.755C382.021 400.641 381.85 402.286 381.627 403.554C381.164 406.332 379.999 410.737 378.593 415.656C376.158 424.107 372.971 434.066 371.189 439.825C378.078 453.932 368.249 500.651 367.017 504.526C363.572 505.125 360.973 504.596 359.72 504.151C358.252 482.62 355.723 438.848 355.75 437.8C356.321 415.656 359.035 395.242 359.257 391.984C359.498 388.727 359.823 370.524 361.384 369.908C364.829 368.622 373.759 365.656 377.788 371.518C381.986 377.672 382.655 390.494 382.141 398.755Z" fill="#8E44AD"/>
<path d="M382.144 398.756C382.024 400.642 381.854 402.287 381.63 403.555C381.167 406.332 380.002 410.737 378.596 415.657C378.168 408.681 377.363 389.311 377.363 389.311L382.144 398.756Z" fill="#490067"/>
<path d="M420.586 499.303C417.67 501.686 414.546 501.594 413.295 501.525C413.912 502.381 393.354 456.291 390.028 446.933C389.823 446.332 388.966 443.83 388.708 442.99C387.132 438.088 382.003 413.101 379.568 403.331L372.639 371.952C372.639 371.952 363.182 373.232 369.953 372.838C378.556 372.324 389.287 368.039 389.287 368.039C403.62 380.274 404.936 394.344 404.352 401.373C404.114 404.218 404.025 407.07 404.166 409.922C404.678 420.429 402.905 434.492 403.313 441.514C418.883 462.94 419.723 491.563 420.586 499.303Z" fill="#8E44AD"/>
<path d="M359.894 310.708C362.465 308.566 366.557 306.494 370.663 305.136C373.572 304.655 378.513 304.866 383.717 306.215C389.756 307.781 396.776 309.107 397.817 311.393C398.807 313.57 399.871 335.86 398.421 343.546C397.33 349.324 394.541 363.642 394.541 367.096C394.541 370.552 396.398 372.033 395.531 373.035C393.592 375.282 380.329 376.227 374.1 376.227C368.558 376.227 359.124 374.749 358.646 372.972C357.936 370.338 359.728 370.436 359.97 367.673C360.214 364.91 357.716 313.207 359.894 310.708Z" fill="#B784CF"/>
<path d="M391.418 328.788C391.418 328.788 392.318 343.954 393.316 354.347C393.555 356.83 392.95 359.793 393.316 361.346L399.128 359.627L394.531 334.392L391.418 328.788Z" fill="#3A5ACE"/>
<path d="M439.081 404.829L330.967 388.407C329.088 388.122 327.796 386.366 328.081 384.487L332.777 353.581C333.061 351.703 334.816 350.41 336.695 350.696L444.809 367.118C446.688 367.403 447.98 369.157 447.695 371.037L443.001 401.943C442.715 403.822 440.96 405.115 439.081 404.829Z" fill="#EB5D62"/>
<g opacity="0.300003">
<g opacity="0.300003">
<path opacity="0.300003" d="M338.55 360.229L440.835 375.766" stroke="white" stroke-width="0.2003" stroke-miterlimit="10" stroke-linecap="round"/>
</g>
</g>
<path d="M338.55 360.229L377.404 366.131" stroke="white" stroke-width="0.2002" stroke-miterlimit="10" stroke-linecap="round"/>
<g opacity="0.300003">
<g opacity="0.300003">
<path opacity="0.300003" d="M337.184 370.676L439.469 386.213" stroke="white" stroke-width="0.2003" stroke-miterlimit="10" stroke-linecap="round"/>
</g>
</g>
<path d="M337.184 370.676L412.134 382.06" stroke="white" stroke-width="0.2002" stroke-miterlimit="10" stroke-linecap="round"/>
<g opacity="0.300003">
<g opacity="0.300003">
<path opacity="0.300003" d="M335.456 380.728L437.741 396.265" stroke="white" stroke-width="0.2003" stroke-miterlimit="10" stroke-linecap="round"/>
</g>
</g>
<path d="M335.456 380.728L424.982 394.326" stroke="white" stroke-width="0.2002" stroke-miterlimit="10" stroke-linecap="round"/>
<path d="M390.262 388.301C390.262 388.301 389.191 391.658 388.798 392.123C388.406 392.585 384.328 394.431 383.685 396.252C383.685 396.252 383.816 397.431 384.852 398.36C385.888 399.289 388.852 400.074 390.565 400.002C392.279 399.932 393.494 396.931 393.673 396.539C393.851 396.146 394.744 392.507 395.673 390.651" fill="#FE9393"/>
<path d="M385.949 393.936C385.949 393.936 383.974 395.191 383.245 396.458C382.668 397.463 382.443 397.717 382.978 397.984C383.514 398.253 384.578 397.878 385.363 397.208" fill="#FE9393"/>
<path d="M391.324 327.246C391.516 334.391 396.331 353.751 396.331 353.751L388.92 390.658C388.92 390.658 389.727 391.553 391.549 392.28C393.34 392.995 395.613 392.951 395.613 392.951C395.613 392.951 410.516 359.851 410.516 352.775C410.516 345.062 409.61 324.452 401.515 313.842C398.373 309.724 391.167 308.108 391.167 308.108" fill="#B784CF"/>
<path d="M308.304 331.998L303.369 330.819C303.369 330.819 302.354 330.258 300.66 328.337C298.967 326.417 296.54 326.633 296.032 326.659C295.522 326.684 295.477 327.327 296.379 327.943C296.982 328.356 298.035 328.164 298.394 329.573C298.556 330.203 296.774 330.226 295.858 329.915C294.942 329.606 291.825 328.125 291.028 327.79C290.229 327.457 289.558 327.967 291.639 329.493C293.578 330.916 294.227 331.191 294.96 331.627C294.965 331.64 295.406 332.57 295.694 332.928C295.774 333.029 295.91 333.107 296.063 333.171C296.18 333.413 296.516 334.086 296.751 334.378C296.792 334.428 296.846 334.472 296.909 334.513C297.1 334.913 297.281 335.299 297.445 335.632C298.088 336.925 300.585 336.563 301.683 336.422C302.781 336.283 307.484 337.341 307.484 337.341L308.304 331.998Z" fill="#FE9393"/>
<path d="M296.294 331.581C296.294 331.581 294.996 331.539 293.148 330.923C291.3 330.307 288.945 328.992 288.463 328.938C287.98 328.884 287.927 329.5 288.463 329.983C288.998 330.465 290.516 331.347 291.383 331.777C292.405 332.288 296.873 333.437 296.873 333.437" fill="#FE9393"/>
<path d="M296.942 332.883C296.942 332.883 295.647 332.988 293.742 332.584C291.836 332.181 289.347 331.141 288.862 331.141C288.377 331.142 288.393 331.76 288.979 332.179C289.566 332.598 291.175 333.302 292.083 333.632C293.157 334.024 297.725 335.153 297.725 335.153" fill="#FE9393"/>
<path d="M298.496 334.789C298.496 334.789 297.201 334.893 295.296 334.49C293.39 334.086 290.901 333.047 290.416 333.047C289.931 333.048 289.947 333.666 290.533 334.085C291.12 334.504 292.729 335.208 293.637 335.538C294.712 335.93 299.279 336.568 299.279 336.568" fill="#FE9393"/>
<path d="M359.894 310.709C359.894 310.709 340.945 327.417 335.298 334.534C335.298 334.534 337.714 339.669 341.936 341.939C341.936 341.939 354.696 335.899 361.295 331.303" fill="#B784CF"/>
<path d="M335.835 333.872L306.647 331.303L305.576 337.348C305.576 337.348 327.645 345.814 335.895 345.811C342.644 345.81 359.155 332.712 359.155 332.712L335.835 333.872Z" fill="#B784CF"/>
<path d="M383.726 306.202L383.717 306.216C383.717 306.216 377.857 310.634 370.664 305.139C370.664 305.139 371.574 303.398 371.729 303.086C372.139 302.388 372.91 300.882 373.402 298.76C373.452 298.616 373.474 298.454 373.518 298.288C373.655 297.655 373.754 296.959 373.82 296.222C373.948 294.942 373.932 293.516 373.712 291.983L374.408 291.422L385.882 282.396L387.19 281.376C387.19 281.376 386.81 283.569 386.289 286.781C386.001 288.602 385.657 290.738 385.316 292.995C384.652 297.573 383.993 302.582 383.726 306.202Z" fill="#FE9393"/>
<path d="M381.933 293.258L381.924 293.272C380.282 295.657 376.574 300.42 371.73 303.086C372.141 302.387 372.912 300.883 373.403 298.759C372.641 298.989 371.949 299.105 371.29 299.166C371.322 298.642 371.348 298.095 371.331 297.522L372.099 297.063L373.82 296.221L382.885 291.807C382.885 291.807 382.562 292.364 381.933 293.258Z" fill="#E15F60"/>
<path d="M363.821 274.517C363.821 274.517 361.824 279.986 365.391 283.094L367.095 274.761L363.821 274.517Z" fill="#8E44AD"/>
<path d="M383.805 290.938C383.23 291.748 382.596 292.524 381.93 293.258L381.922 293.273C380.814 294.472 379.56 295.563 378.194 296.489C376.435 297.676 374.837 298.381 373.402 298.76C372.639 298.988 371.946 299.105 371.287 299.166C368.237 299.423 366.457 298.248 366.457 298.248C363.597 294.004 363.7 287.121 364.355 281.895C364.609 279.781 364.964 277.942 365.234 276.653C365.486 275.488 365.68 274.792 365.68 274.792C365.692 274.742 365.696 274.705 365.708 274.653C366.95 267.907 375.963 267.673 382.165 271.471C382.531 271.696 382.873 271.928 383.214 272.195C384.937 273.43 386.362 275.025 387.214 276.889C388.668 280.075 387.777 283.698 386.287 286.78C386.205 286.943 386.126 287.107 386.044 287.269C385.35 288.649 384.543 289.898 383.805 290.938Z" fill="#FE9393"/>
<path d="M384.176 270.963C384.176 270.963 376.827 282.287 364.509 276.332C360.91 274.592 360.104 262.339 363.266 264.786C369.749 269.804 374.849 260.248 381.075 263.472C383.075 264.508 385.041 267.03 384.176 270.963Z" fill="#8E44AD"/>
<path d="M381.734 272.402C381.734 272.402 377.463 294.635 381.976 284.426C381.976 284.426 383.121 281.578 385.193 281.838C387.265 282.099 385.599 289.75 385.316 292.99C385.316 292.99 390.054 289.6 391.8 279.513C393.546 269.425 386.761 265.278 383.005 269.649L381.734 272.402Z" fill="#8E44AD"/>
<path d="M384.785 283.427C384.785 283.427 383.622 283.586 383.375 285.717C383.129 287.849 384.502 288.276 384.776 287.15C385.049 286.025 384.013 285.348 383.784 285.817C383.784 285.817 383.504 284.579 384.785 283.427Z" fill="#E15F60"/>
<path d="M499.785 499.275H483.786V426.231H499.785V499.275Z" fill="#8E44AD"/>
<path d="M525.494 499.275H509.496V437.945H525.494V499.275Z" fill="#8E44AD"/>
<path d="M474.308 499.274H458.31V447.943H474.308V499.274Z" fill="#8E44AD"/>
<path d="M551.204 499.274H535.206V416.519H551.204V499.274Z" fill="#8E44AD"/>
<path d="M466.307 437.944L491.783 413.374L517.496 428.729L543.207 398.072" stroke="#8E44AD" stroke-width="0.1096" stroke-miterlimit="10"/>
<path d="M469.169 437.837C469.169 439.375 467.923 440.622 466.384 440.622C464.845 440.622 463.597 439.375 463.597 437.837C463.597 436.298 464.845 435.052 466.384 435.052C467.923 435.052 469.169 436.298 469.169 437.837Z" fill="#8E44AD"/>
<path d="M494.57 413.732C494.57 415.271 493.322 416.517 491.785 416.517C490.246 416.517 488.999 415.271 488.999 413.732C488.999 412.193 490.246 410.947 491.785 410.947C493.322 410.947 494.57 412.193 494.57 413.732Z" fill="#8E44AD"/>
<path d="M520.281 428.373C520.281 429.912 519.034 431.158 517.496 431.158C515.957 431.158 514.709 429.912 514.709 428.373C514.709 426.834 515.957 425.588 517.496 425.588C519.034 425.588 520.281 426.834 520.281 428.373Z" fill="#8E44AD"/>
<path d="M545.997 398.071C545.997 399.609 544.751 400.856 543.212 400.856C541.673 400.856 540.426 399.609 540.426 398.071C540.426 396.532 541.673 395.286 543.212 395.286C544.751 395.286 545.997 396.532 545.997 398.071Z" fill="#8E44AD"/>
<path d="M89.3912 397.976C89.3912 397.976 85.6085 399.169 86.8814 405.649C88.1527 412.127 90.2387 412.912 89.3365 418.715C88.4358 424.518 95.1035 428.936 96.1778 432.531C97.2521 436.126 94.8064 442.49 97.7087 447.299C99.288 449.915 103.274 451.954 108.505 452.473C120.386 453.651 129.984 447.596 132.527 436.97C132.921 435.327 133.104 433.63 132.977 431.924C132.215 421.685 120.577 421.489 117.337 419.22C114.097 416.952 113.222 408.528 110.42 406.615C107.618 404.701 104.505 407.528 99.7603 403.311C95.0159 399.095 92.4014 397.062 89.3912 397.976Z" fill="#B16CD0"/>
<path d="M89.8708 400.915C89.8708 400.915 125.199 442.49 129.855 474.964" stroke="white" stroke-width="0.0822" stroke-miterlimit="10" stroke-linecap="round"/>
<path d="M90.9497 411.358C90.9497 411.358 97.619 413.056 102.223 417.092" stroke="white" stroke-width="0.0548" stroke-miterlimit="10" stroke-linecap="round"/>
<path d="M108.082 408.291C108.082 408.291 105.122 416.931 106.211 422.884" stroke="white" stroke-width="0.0548" stroke-miterlimit="10" stroke-linecap="round"/>
<path d="M96.7593 428.959C96.7593 428.959 108.914 430.435 112.919 433.445" stroke="white" stroke-width="0.0548" stroke-miterlimit="10" stroke-linecap="round"/>
<path d="M122.444 426.298C122.444 426.298 117.299 436.665 117.385 441.27" stroke="white" stroke-width="0.0548" stroke-miterlimit="10" stroke-linecap="round"/>
<path d="M102.161 446.098C102.161 446.098 112.047 444.117 119.526 445.368" stroke="white" stroke-width="0.0548" stroke-miterlimit="10" stroke-linecap="round"/>
<path d="M109.177 418.84C109.177 418.84 108.15 423.245 108.197 425.883" stroke="white" stroke-width="0.0548" stroke-miterlimit="10" stroke-linecap="round"/>
<path d="M154.28 392.625C154.28 392.625 158.227 393.018 158.31 399.62C158.394 406.222 156.515 407.42 158.587 412.913C160.659 418.408 155.037 424.1 154.724 427.839C154.41 431.578 158.11 437.304 156.254 442.605C155.245 445.489 151.763 448.303 146.748 449.884C135.361 453.473 124.726 449.515 120.058 439.636C119.336 438.109 118.809 436.486 118.582 434.79C117.228 424.613 128.58 422.034 131.286 419.149C133.992 416.264 133.118 407.84 135.47 405.393C137.82 402.946 141.447 405.074 145.225 399.975C149.004 394.875 151.147 392.348 154.28 392.625Z" fill="#8B57A2"/>
<path d="M154.415 395.6C154.415 395.6 128.363 443.536 130.465 476.276" stroke="white" stroke-width="0.0822" stroke-miterlimit="10" stroke-linecap="round"/>
<path d="M155.5 406.042C155.5 406.042 149.32 409.071 145.643 413.967" stroke="white" stroke-width="0.0548" stroke-miterlimit="10" stroke-linecap="round"/>
<path d="M138.106 406.552C138.106 406.552 142.775 414.401 142.929 420.451" stroke="white" stroke-width="0.0548" stroke-miterlimit="10" stroke-linecap="round"/>
<path d="M153.425 424.46C153.425 424.46 141.831 428.398 138.529 432.165" stroke="white" stroke-width="0.0548" stroke-miterlimit="10" stroke-linecap="round"/>
<path d="M127.741 427.122C127.741 427.122 134.903 436.213 135.763 440.74" stroke="white" stroke-width="0.0548" stroke-miterlimit="10" stroke-linecap="round"/>
<path d="M151.648 442.343C151.648 442.343 141.567 442.431 134.502 445.189" stroke="white" stroke-width="0.0548" stroke-miterlimit="10" stroke-linecap="round"/>
<path d="M139.2 417.102C139.2 417.102 141.11 421.202 141.605 423.795" stroke="white" stroke-width="0.0548" stroke-miterlimit="10" stroke-linecap="round"/>
<path d="M142.895 497.558H115.475L109.757 457.897H148.614L142.895 497.558Z" fill="white"/>
<g opacity="0.669998">
<g opacity="0.669998">
<path opacity="0.669998" d="M109.756 457.897L110.386 462.269L147.429 466.112L148.613 457.897H109.756Z" fill="#B784CF"/>
</g>
</g>
<path d="M151.146 460.04H107.222V453.944H151.146V460.04Z" fill="white"/>
<path d="M550.441 154.638H503.399V122.578H550.441V154.638Z" fill="white"/>
<path d="M503.393 154.638C505.238 152.884 507.149 151.207 509.024 149.49L514.763 144.472C518.589 141.127 522.496 137.881 526.403 134.635L526.915 134.211L527.424 134.635C531.334 137.88 535.24 141.126 539.068 144.469L544.805 149.489C546.68 151.207 548.591 152.882 550.435 154.638C548.36 153.163 546.35 151.609 544.305 150.095L538.281 145.423C534.269 142.305 530.336 139.09 526.403 135.873H527.424C523.492 139.088 519.559 142.303 515.545 145.421L509.523 150.094C507.478 151.608 505.468 153.162 503.393 154.638Z" fill="#B784CF"/>
<path d="M503.393 122.578L526.915 141.962L550.435 122.578" fill="white"/>
<path d="M503.393 122.578C505.468 124.054 507.478 125.609 509.523 127.123L515.545 131.795C519.559 134.913 523.492 138.128 527.424 141.343H526.403C530.336 138.126 534.269 134.911 538.281 131.793L544.305 127.121C546.35 125.607 548.36 124.053 550.435 122.578C548.591 124.334 546.68 126.009 544.805 127.728L539.068 132.747C535.24 136.09 531.334 139.337 527.424 142.582L526.915 143.005L526.403 142.582C522.496 139.335 518.589 136.089 514.763 132.744L509.024 127.726C507.149 126.009 505.238 124.333 503.393 122.578Z" fill="#B784CF"/>
<path d="M545.628 122.666C545.628 125.31 543.484 127.456 540.838 127.456C538.194 127.456 536.05 125.31 536.05 122.666C536.05 120.022 538.194 117.876 540.838 117.876C543.484 117.876 545.628 120.022 545.628 122.666Z" fill="#EB5D62"/>
<path d="M538.132 122.311L540.265 124.777L543.569 121.106" stroke="white" stroke-width="0.0667" stroke-miterlimit="10" stroke-linecap="round" stroke-linejoin="round"/>
<path d="M318.053 122.942H325.577" stroke="white" stroke-width="0.1" stroke-miterlimit="10" stroke-linecap="round"/>
<path d="M321.817 119.178V126.703" stroke="white" stroke-width="0.1" stroke-miterlimit="10" stroke-linecap="round"/>
<path d="M438.145 468.61H445.669" stroke="white" stroke-width="0.1" stroke-miterlimit="10" stroke-linecap="round"/>
<path d="M441.902 464.846V472.37" stroke="white" stroke-width="0.1" stroke-miterlimit="10" stroke-linecap="round"/>
<path d="M358.615 121.326C358.615 123.232 357.07 124.777 355.163 124.777C353.259 124.777 351.714 123.232 351.714 121.326C351.714 119.42 353.259 117.875 355.163 117.875C357.07 117.875 358.615 119.42 358.615 121.326Z" fill="white"/>
<path d="M574.9 219.85C574.9 221.756 573.355 223.301 571.449 223.301C569.544 223.301 568 221.756 568 219.85C568 217.944 569.544 216.399 571.449 216.399C573.355 216.399 574.9 217.944 574.9 219.85Z" fill="white"/>
<path d="M586.849 360.23C586.849 362.136 585.304 363.681 583.398 363.681C581.493 363.681 579.948 362.136 579.948 360.23C579.948 358.323 581.493 356.779 583.398 356.779C585.304 356.779 586.849 358.323 586.849 360.23Z" fill="#8E44AD"/>
<path d="M283.674 468.61C283.674 470.516 282.129 472.061 280.223 472.061C278.318 472.061 276.773 470.516 276.773 468.61C276.773 466.704 278.318 465.159 280.223 465.159C282.129 465.159 283.674 466.704 283.674 468.61Z" fill="white"/>
<path d="M108.291 363.181C108.291 365.088 106.746 366.633 104.84 366.633C102.936 366.633 101.391 365.088 101.391 363.181C101.391 361.275 102.936 359.73 104.84 359.73C106.746 359.73 108.291 361.275 108.291 363.181Z" fill="#8E44AD"/>
<path d="M445.274 99.2523H452.799" stroke="#3F49A5" stroke-width="0.1" stroke-miterlimit="10" stroke-linecap="round"/>
<path d="M449.038 95.4885V103.013" stroke="#3F49A5" stroke-width="0.1" stroke-miterlimit="10" stroke-linecap="round"/>
<path d="M567.689 174.743H575.214" stroke="white" stroke-width="0.1" stroke-miterlimit="10" stroke-linecap="round"/>
<path d="M571.454 170.981V178.505" stroke="white" stroke-width="0.1" stroke-miterlimit="10" stroke-linecap="round"/>
<path d="M579.639 451.187H587.164" stroke="#8E44AD" stroke-width="0.1" stroke-miterlimit="10" stroke-linecap="round"/>
<path d="M583.403 447.425V454.949" stroke="#8E44AD" stroke-width="0.1" stroke-miterlimit="10" stroke-linecap="round"/>
<path d="M58.2625 444.952H65.7871" stroke="white" stroke-width="0.1" stroke-miterlimit="10" stroke-linecap="round"/>
<path d="M62.0264 441.19V448.714" stroke="white" stroke-width="0.1" stroke-miterlimit="10" stroke-linecap="round"/>
</svg>
